<?xml version="1.0" encoding="UTF-8" standalone="no"?>
<!-- Created with Vectornator (http://vectornator.io/) -->

<svg
   width="32"
   height="32"
   clip-rule="evenodd"
   stroke-linecap="round"
   stroke-linejoin="round"
   stroke-miterlimit="10"
   version="1.1"
   viewBox="0 0 32 32"
   xml:space="preserve"
   id="svg1378"
   sodipodi:docname="theme-editor4.svg"
   inkscape:version="1.1.1 (3bf5ae0d25, 2021-09-20)"
   inkscape:dataloss="true"
   xmlns:inkscape="http://www.inkscape.org/namespaces/inkscape"
   xmlns:sodipodi="http://sodipodi.sourceforge.net/DTD/sodipodi-0.dtd"
   xmlns="http://www.w3.org/2000/svg"
   xmlns:svg="http://www.w3.org/2000/svg"
   xmlns:vectornator="http://vectornator.io"><defs
   id="defs1382" /><sodipodi:namedview
   id="namedview1380"
   pagecolor="#ffffff"
   bordercolor="#666666"
   borderopacity="1.0"
   inkscape:pageshadow="2"
   inkscape:pageopacity="0.0"
   inkscape:pagecheckerboard="0"
   showgrid="false"
   inkscape:zoom="18.649941"
   inkscape:cx="16.005412"
   inkscape:cy="16.005412"
   inkscape:window-width="1852"
   inkscape:window-height="1016"
   inkscape:window-x="68"
   inkscape:window-y="27"
   inkscape:window-maximized="1"
   inkscape:current-layer="g1372" />
<g
   class="jp-icon3"
   transform="matrix(1.12 0 0 1.12 -.79163 -1.9985)"
   fill="#616161"
   id="g1376">





<g
   transform="translate(-.8135 -.70854)"
   id="g1374"><g
     transform="matrix(1.05 0 0 1.05 -2.4577 -.76529)"
     id="g1372"><g
       transform="matrix(.03125 0 0 .03125 .97032 .48858)"
       vectornator:layerName="Layer 1"
       id="g1357">
<path
   d="m542.97 104.28c-143.31 0.702-234.82 80.755-257.91 182-29.552 129.59 9.217 224.28 117.88 251.03 108.66 26.748 157.5 36.834 181.47 69.157 75.868 102.32 39.712 167.86 61.282 211.12 52.191 104.7 226.78-47.032 284.56-270.47 57.782-223.44-36.168-361.67-255.06-423.5-47.884-13.526-92.094-19.54-132.22-19.344zm15.906 66.781c1.677 0.075 3.352 0.265 5.031 0.594 26.871 5.268 43.248 41.767 36.563 81.532-6.685 39.764-33.91 67.737-60.781 62.468-26.872-5.268-43.216-41.766-36.532-81.531 6.267-37.28 30.565-64.185 55.719-63.063zm159.44 41.75c5.104 0.119 10.07 1.248 14.719 3.5 24.795 12.016 31.319 51.261 14.563 87.657s-50.456 56.171-75.25 44.156c-24.795-12.015-31.318-51.26-14.563-87.656 13.614-29.572 38.415-48.169 60.531-47.657zm-331.62 20.938c23.491 0.977 47.909 25.358 57.718 59.688 11.211 39.233-0.916 76.593-27.094 83.437-26.177 6.844-56.477-19.423-67.687-58.656-11.211-39.234 0.916-76.563 27.094-83.407 3.272-0.855 6.613-1.201 9.969-1.062zm456.59 97.688c8.977 0.389 17.172 3.297 23.719 8.937 20.949 18.048 16.968 57.326-8.875 87.75-25.842 30.424-63.77 40.454-84.719 22.406-20.949-18.047-16.967-57.325 8.875-87.75 17.767-20.917 41.252-32.201 61-31.343z"
   stroke="#616161"
   stroke-linecap="butt"
   stroke-linejoin="round"
   stroke-width="17.775"
   id="path1355" />
</g><g
       transform="rotate(105,13.812269,22.074155)"
       id="g1370"><g
         transform="matrix(0.03125,0,0,0.03125,0.97032,0.48858)"
         vectornator:layerName="Layer 4"
         id="g1361">
<path
   d="m 324.12,592.86 c -3.614,3.413 -7.92,7.029 -12.875,10.907 -0.058,0.048 -0.098,0.108 -0.156,0.156 -0.179,0.14 -0.35,0.265 -0.531,0.406 -1.406,1.094 -2.534,2.064 -4.063,3.219 0.095,-0.071 -7.365,5.562 -9.406,7.125 -3.735,2.86 -6.665,5.206 -9.25,7.469 -0.523,0.457 -4.92,4.399 -6.375,5.656 -1.228,1.061 -2.343,1.923 -3.5,2.844 19.902,25.075 41.269,51.267 64.5,78.562 113.78,133.68 217.74,233.93 232.19,223.91 14.452,-10.027 -66.09,-126.53 -179.88,-260.22 -24.349,-28.608 -47.99,-55.243 -70.657,-80.032 z"
   stroke="#616161"
   stroke-linecap="butt"
   stroke-linejoin="round"
   stroke-width="17.775"
   id="path1359" />
</g><g
         id="Layer-4-copy"
         transform="matrix(0.03125,0,0,0.03125,0.97032,0.48858)"
         vectornator:layerName="Layer 4 copy">
<path
   d="m 235,500.95 c -8.171,10.062 -18.667,19.129 -32.343,28.969 16.499,24.03 37.303,52.227 61.375,83.094 C 278.455,605.099 294.72,591.775 309.25,576.7 281.901,547.301 256.574,521.42 235,500.95 Z"
   stroke="#ffffff"
   stroke-linecap="butt"
   stroke-linejoin="round"
   stroke-width="17.775"
   id="path1363" />
</g><g
         transform="matrix(0.03125,0,0,0.03125,0.97032,0.48858)"
         vectornator:layerName="Layer 3"
         id="g1368">
<path
   d="m 145.1,366.55 c 40.96,6.246 59.443,23.082 79.348,76.653 13.046,35.111 -18.332,61.686 -38.681,69.832 -20.35,8.145 -69.142,-13.169 -95.537,-53.739 -45.607,-70.1 -14.564,-147.68 13.388,-163.34 27.951,-15.658 -1.862,63.98 41.482,70.59 z"
   stroke="#ffffff"
   stroke-linecap="butt"
   stroke-linejoin="round"
   stroke-width="17.775"
   id="path1366" />
</g></g></g></g></g>
</svg>
